Coordinates
version=1
nRows=24
nColumns=24
inDegrees=yes

Units are S.I. units (second, meters, Newtons, ...)
Angles are in degrees.

endheader
time	pelvis_tilt	pelvis_list	pelvis_rotation	pelvis_tx	pelvis_ty	pelvis_tz	hip_flexion_r	hip_adduction_r	hip_rotation_r	knee_angle_r	ankle_angle_r	subtalar_angle_r	mtp_angle_r	hip_flexion_l	hip_adduction_l	hip_rotation_l	knee_angle_l	ankle_angle_l	subtalar_angle_l	mtp_angle_l	lumbar_extension	lumbar_bending	lumbar_rotation
      0.53316667	     -5.60372743	      0.89076010	      2.14545818	     -0.40184485	      1.06314812	      0.33537210	     17.75658746	      1.74383067	     -3.08877084	    -20.57056244	     10.37170532	     -4.36107243	      4.72470691	     20.01171722	     -3.24748020	     -3.95726805	    -69.50000204	      6.13183299	      3.86795602	      2.66752021	    -10.56774782	      5.42149490	      1.05374549
      0.53733333	     -5.57043496	      0.98852228	      2.09023519	     -0.39667129	      1.06418612	      0.33574465	     17.25085981	      1.67144973	     -3.10830937	    -20.23486626	     10.47228074	     -4.19351799	      4.70529450	     20.48366255	     -3.14080056	     -4.02023378	    -69.17976359	      6.48762770	      4.16606968	      2.66386331	    -10.63531217	      5.26703068	      1.22158625
      0.54150000	     -5.53363219	      1.07254015	      2.02669447	     -0.39148751	      1.06520021	      0.33612714	     16.73844242	      1.61714815	     -3.11737089	    -19.89128520	     10.56030781	     -4.03690487	      4.68589723	     20.93774572	     -3.05594289	     -4.09567346	    -68.81045568	      6.83695260	      4.45663283	      2.66294826	    -10.71426559	      5.12796202	      1.39927000
      0.54566667	     -5.50508611	      1.16562149	      1.94804675	     -0.38631812	      1.06616890	      0.33651501	     16.23863669	      1.55536445	     -3.10750994	    -19.54946352	     10.64553930	     -3.88389353	      4.66686787	     21.38570845	     -2.96359329	     -4.19059851	    -68.38839876	      7.17217477	      4.72835314	      2.66441848	    -10.77977476	      4.97577564	      1.58342183
      0.54983333	     -5.47641632	      1.25491336	      1.86102375	     -0.38115529	      1.06707471	      0.33691159	     15.74355439	      1.49871640	     -3.09177150	    -19.21511665	     10.73166175	     -3.74333378	      4.64916812	     21.82311213	     -2.88447135	     -4.30625913	    -67.92667250	      7.49490177	      4.97310126	      2.66787663	    -10.84256033	      4.82983719	      1.77025059
      0.55400000	     -5.45316647	      1.35045511	      1.75672726	     -0.37598574	      1.06795245	      0.33732205	     15.25765744	      1.43696775	     -3.07002972	    -18.88316525	     10.79632126	     -3.60579788	      4.63563803	     22.24566075	     -2.80166102	     -4.43855491	    -67.40766978	      7.82453870	      5.20048957	      2.67377770	    -10.89190064	      4.66064375	      1.93305057
      0.55816667	     -5.42189352	      1.43053033	      1.65522741	     -0.37084487	      1.06879967	      0.33771373	     14.76034231	      1.39245942	     -3.02497166	    -18.54085775	     10.88700392	     -3.46793537	      4.61964278	     22.65419580	     -2.73459361	     -4.56306062	    -66.84897888	      8.11719566	      5.42142388	      2.67942688	    -10.97066139	      4.53351719	      2.15759690
      0.56233333	     -5.37989521	      1.51313022	      1.54197051	     -0.36569698	      1.06961726	      0.33812255	     14.25407161	      1.34580836	     -2.98480452	    -18.20103175	     10.97565827	     -3.33663793	      4.59942764	     23.03468961	     -2.67431686	     -4.71231194	    -66.24484387	      8.40171093	      5.60162577	      2.68474951	    -11.04961187	      4.37381166	      2.40476998
      0.56650000	     -5.38514277	      1.58863712	      1.42481416	     -0.36055921	      1.07029808	      0.33852939	     13.80652397	      1.30551686	     -2.93387627	    -17.87309772	     11.01644724	     -3.22448088	      4.59003490	     23.45868382	     -2.62232078	     -4.86568812	    -65.60738677	      8.69630001	      5.73765586	      2.69098152	    -11.07377649	      4.23186409	      2.52407881
      0.57066667	     -5.35066695	      1.67998076	      1.29589712	     -0.35543411	      1.07102918	      0.33893918	     13.31945863	      1.24953685	     -2.86451779	    -17.55113753	     11.10048021	     -3.11234540	      4.57848698	     23.81616039	     -2.55502855	     -5.02993628	    -64.90285033	      8.95978269	      5.90081687	      2.69604440	    -11.14915560	      4.09433187	      2.73973666
      0.57483333	     -5.35092070	      1.75194147	      1.16971098	     -0.35031637	      1.07162374	      0.33933719	     12.87176979	      1.21227698	     -2.79812136	    -17.22917782	     11.17328463	     -3.00370836	      4.56734625	     24.20846671	     -2.51108385	     -5.19477423	    -64.17621208	      9.21151933	      6.01065246	      2.69991033	    -11.18007195	      3.95693102	      2.94457386
      0.57900000	     -5.35774510	      1.82145095	      1.04681693	     -0.34519932	      1.07217638	      0.33973875	     12.43011802	      1.17700061	     -2.72929494	    -16.90346902	     11.23483162	     -2.90080260	      4.55964081	     24.59544417	     -2.46835458	     -5.35555238	    -63.40728716	      9.44773749	      6.08052172	      2.70234679	    -11.20613161	      3.80854772	      3.10027895
      0.58316667	     -5.34029981	      1.88602737	      0.91852532	     -0.34010714	      1.07271249	      0.34012798	     11.96723016	      1.14598868	     -2.65830709	    -16.58516701	     11.33315698	     -2.80392789	      4.54464067	     24.94292996	     -2.43264497	     -5.51941434	    -62.59378336	      9.65526164	      6.15133473	      2.70070707	    -11.26426219	      3.67887920	      3.38204295
      0.58733333	     -5.34781135	      1.95696177	      0.78901138	     -0.33501688	      1.07316235	      0.34050595	     11.53797207	      1.10528697	     -2.58550894	    -16.27969153	     11.41199230	     -2.71237748	      4.53242274	     25.30214124	     -2.38727904	     -5.68480863	    -61.73621755	      9.85182133	      6.18570404	      2.69702585	    -11.28773715	      3.54747043	      3.55225550
      0.59150000	     -5.39443534	      2.00394640	      0.67011989	     -0.32992295	      1.07348483	      0.34086963	     11.14883489	      1.08834029	     -2.51551426	    -15.96848898	     11.46532814	     -2.62016605	      4.52791694	     25.70026250	     -2.36439497	     -5.83176022	    -60.85779346	     10.04880745	      6.18948287	      2.69537136	    -11.26681694	      3.44280735	      3.64048823
      0.59566667	     -5.39294368	      2.06089159	      0.54208893	     -0.32485732	      1.07384449	      0.34123255	     10.71639689	      1.06041274	     -2.43745828	    -15.67497030	     11.56596303	     -2.54508981	      4.51523731	     26.02522273	     -2.33215422	     -5.98717304	    -59.92244264	     10.20128946	      6.19052052	      2.68412046	    -11.30590809	      3.32677489	      3.89804261
      0.59983333	     -5.41411699	      2.11790494	      0.41925335	     -0.31979655	      1.07411786	      0.34157208	     10.31213077	      1.02840645	     -2.36647217	    -15.38819631	     11.65009335	     -2.45872629	      4.50277122	     26.36275283	     -2.29297620	     -6.13041756	    -58.94989723	     10.34674689	      6.15881330	      2.66918528	    -11.32162348	      3.21541501	      4.05647825
      0.60400000	     -5.45692874	      2.16538766	      0.30130379	     -0.31473368	      1.07431198	      0.34189984	      9.93373090	      1.00539202	     -2.29923907	    -15.10527175	     11.72224471	     -2.38686722	      4.49646978	     26.71094996	     -2.26226140	     -6.26728738	    -57.94000113	     10.47639096	      6.11743712	      2.65903140	    -11.30311671	      3.12131378	      4.14613512
      0.60816667	     -5.48942293	      2.20411127	      0.18928917	     -0.30969374	      1.07445594	      0.34220060	      9.54632016	      0.98882632	     -2.23374491	    -14.82679464	     11.81243132	     -2.31524539	      4.49014368	     27.03786312	     -2.23416472	     -6.38725634	    -56.89645213	     10.58060039	      6.04968670	      2.64572173	    -11.30465462	      3.03299278	      4.26984859
      0.61233333	     -5.52782399	      2.23709483	      0.08400971	     -0.30465220	      1.07455749	      0.34248202	      9.16495465	      0.97655845	     -2.17336654	    -14.54775722	     11.90134474	     -2.24860715	      4.48373609	     27.35625128	     -2.20590714	     -6.49285958	    -55.81242230	     10.66269649	      5.96709260	      2.63042993	    -11.30193872	      2.95423986	      4.38976592
      0.61650000	     -5.55677666	      2.25481372	     -0.00998827	     -0.29963460	      1.07460466	      0.34272994	      8.77435042	      0.97792387	     -2.11991693	    -14.27108851	     12.01166164	     -2.17781114	      4.47070663	     27.65727378	     -2.18366754	     -6.57155251	    -54.70170418	     10.71840324	      5.85373199	      2.60284851	    -11.31741368	      2.89037556	      4.55180593
      0.62066667	     -5.63074645	      2.27379550	     -0.10572506	     -0.29460359	      1.07452737	      0.34296951	      8.44033212	      0.97619473	     -2.06536868	    -14.01229674	     12.10055260	     -2.12028269	      4.46322466	     27.98903655	     -2.16019829	     -6.65206390	    -53.55149511	     10.76891292	      5.75644260	      2.58409804	    -11.27195874	      2.83189575	      4.62103053
      0.62483333	     -5.68149902	      2.28431900	     -0.19036453	     -0.28959936	      1.07444667	      0.34317625	      8.08154633	      0.98112994	     -2.01813785	    -13.75232275	     12.20031528	     -2.06366120	      4.45526907	     28.28281805	     -2.13355604	     -6.70417035	    -52.36220979	     10.78838565	      5.62494832	      2.56313281	    -11.25651858	      2.78679394	      4.70314944
      0.62900000	     -5.73397090	      2.28288789	     -0.26733693	     -0.28460053	      1.07431192	      0.34336205	      7.72424279	      0.99727692	     -1.97267189	    -13.49306554	     12.30234552	     -2.01278453	      4.44689977	     28.56582116	     -2.11281663	     -6.73823848	    -51.14117248	     10.79276703	      5.48777515	      2.54170343	    -11.24436884	      2.75628956	      4.77995369
